# Blender v2.93.5 OBJ File: 'grass.blend'
# www.blender.org
mtllib grass.mtl
o grass_emitter_Plane
v -8.500687 2.171179 6.076276
v 8.615626 1.358168 6.052036
v -8.337997 2.426245 -6.009203
v 8.448982 2.167725 -6.084393
v 0.000000 1.999115 6.096632
v -0.000007 2.622105 -6.014927
v -8.231225 2.609200 0.016757
v 8.287104 1.835585 0.005753
v 0.003249 2.036667 0.043218
v 8.232853 2.005808 -2.990357
v -0.019521 2.768667 -2.893523
v -8.122029 2.863602 -2.972836
v -8.495717 2.611068 2.985720
v 8.584828 1.535954 3.020396
v 0.023478 2.021587 3.052350
v 8.450761 1.742193 1.514283
v 0.024288 1.949708 1.534140
v -8.387357 2.619856 1.494926
v -4.227346 2.941065 -5.991932
v -4.249035 2.038862 6.093179
v -3.921548 3.336818 0.128106
v -3.928136 3.453586 -2.857722
v -4.225665 2.386477 3.049435
v -4.099094 2.964302 1.574347
v 4.321465 1.613716 6.069825
v 4.283186 2.519976 -6.019408
v 4.048172 1.758544 0.078762
v 3.981939 2.501241 -2.835012
v 4.369604 1.462017 3.028519
v 4.254143 1.494164 1.530792
v -2.124382 1.999887 6.096828
v -2.183551 2.633698 -6.018029
v -1.948172 2.577484 0.090587
v -1.959987 3.120384 -2.880435
v -2.111176 2.440186 3.065966
v -2.056330 2.613046 1.562642
v 2.181084 2.607504 -6.015637
v 2.008451 1.871967 0.064689
v 1.952275 2.655081 -2.861786
v 2.189565 1.795819 3.042508
v 2.153969 1.669832 1.530790
v 2.135148 1.946091 6.092620
v 6.499784 1.312017 6.048899
v 6.358064 2.344200 -6.048242
v 6.135657 1.682550 0.048379
v 6.064823 2.200239 -2.887296
v 6.505095 1.318411 3.015091
v 6.349543 1.489021 1.517227
v -6.227542 3.222659 -5.970748
v -6.005468 3.014791 0.090023
v -5.938380 3.526784 -2.884857
v -6.350752 2.660920 3.008098
v -6.207344 2.815569 1.533660
v -6.375811 2.153455 6.078573
v -8.132290 2.695191 -1.495437
v 8.184576 1.930201 -1.490638
v -0.017725 2.437290 -1.416113
v -3.846083 3.398907 -1.346996
v 3.927367 2.191409 -1.358330
v -1.906528 2.924073 -1.385529
v 1.914575 2.311916 -1.389249
v 6.010555 1.978696 -1.405705
v -5.905389 3.285285 -1.396819
v 8.352355 2.114894 -4.537961
v -0.007598 2.832093 -4.445250
v -8.192468 2.779619 -4.463399
v -4.079034 3.385718 -4.406161
v 4.154593 2.596874 -4.409451
v -2.084231 3.005433 -4.438117
v 2.078436 2.781769 -4.419190
v 6.229520 2.323048 -4.456496
v -6.053761 3.573783 -4.396282
v -8.504476 2.470289 4.518488
v 8.621202 1.338836 4.527469
v 0.003577 2.023359 4.573553
v -4.244510 2.228443 4.562305
v 4.363043 1.494299 4.540634
v -2.119368 2.034182 4.580298
v 2.160238 1.899730 4.565735
v 6.531171 1.212905 4.521023
v -6.375267 2.458897 4.529373
vt 0.875000 0.875000
vt 1.000000 0.875000
vt 1.000000 1.000000
vt 0.875000 1.000000
vt 0.375000 0.875000
vt 0.500000 0.875000
vt 0.500000 1.000000
vt 0.375000 1.000000
vt 0.375000 0.375000
vt 0.500000 0.375000
vt 0.500000 0.500000
vt 0.375000 0.500000
vt 0.875000 0.375000
vt 1.000000 0.375000
vt 1.000000 0.500000
vt 0.875000 0.500000
vt 0.375000 0.625832
vt 0.500000 0.625832
vt 0.500000 0.750000
vt 0.375000 0.750000
vt 0.875000 0.625832
vt 1.000000 0.625832
vt 1.000000 0.750000
vt 0.875000 0.750000
vt 0.875000 0.125000
vt 1.000000 0.125000
vt 1.000000 0.250000
vt 0.875000 0.250000
vt 0.375000 0.125000
vt 0.500000 0.125000
vt 0.500000 0.250000
vt 0.375000 0.250000
vt 0.125000 0.250000
vt 0.250000 0.250000
vt 0.250000 0.375000
vt 0.125000 0.375000
vt 0.125000 0.125000
vt 0.250000 0.125000
vt 0.125000 0.625832
vt 0.250000 0.625832
vt 0.250000 0.750000
vt 0.125000 0.750000
vt 0.250000 0.500000
vt 0.125000 0.500000
vt 0.125000 0.875000
vt 0.250000 0.875000
vt 0.250000 1.000000
vt 0.125000 1.000000
vt 0.625000 0.250000
vt 0.750000 0.250000
vt 0.750000 0.375000
vt 0.625000 0.375000
vt 0.625000 0.125000
vt 0.750000 0.125000
vt 0.625000 0.625832
vt 0.750000 0.625832
vt 0.750000 0.750000
vt 0.625000 0.750000
vt 0.750000 0.500000
vt 0.625000 0.500000
vt 0.625000 0.875000
vt 0.750000 0.875000
vt 0.750000 1.000000
vt 0.625000 1.000000
vt 0.000000 0.875000
vt 0.000000 1.000000
vt 0.000000 0.375000
vt 0.000000 0.500000
vt 0.000000 0.625832
vt 0.000000 0.750000
vt 0.000000 0.125000
vt 0.000000 0.250000
vt 0.000000 0.000000
vt 0.125000 0.000000
vt 0.750000 0.000000
vt 0.875000 0.000000
vt 0.500000 0.000000
vt 0.625000 0.000000
vt 0.250000 0.000000
vt 0.375000 0.000000
vt 1.000000 0.000000
vn 0.0917 0.9953 0.0300
vn 0.0425 0.9823 -0.1827
vn 0.2865 0.9578 0.0250
vn -0.0934 0.9898 0.1072
vn 0.2127 0.9627 0.1670
vn 0.0599 0.9931 0.1010
vn -0.0820 0.9915 0.1013
vn 0.1001 0.9861 0.1322
vn -0.1109 0.9847 0.1342
vn 0.2488 0.9679 0.0369
vn 0.0241 0.9697 0.2430
vn 0.1149 0.9863 0.1187
vn -0.0118 0.9950 0.0987
vn -0.1131 0.9774 0.1785
vn 0.1116 0.9609 -0.2533
vn 0.1180 0.9923 -0.0369
vn 0.1658 0.9853 -0.0422
vn 0.0630 0.9740 0.2176
vn 0.0684 0.9864 0.1495
vn 0.0650 0.9952 -0.0733
vn 0.0689 0.9664 0.2478
vn 0.0311 0.9826 0.1834
vn 0.2031 0.9765 0.0724
vn 0.2656 0.9544 0.1362
vn 0.1586 0.9530 -0.2582
vn 0.0158 0.9927 -0.1199
vn 0.1061 0.9902 0.0908
vn 0.0562 0.9731 0.2232
vn 0.0804 0.9962 -0.0333
vn 0.1164 0.9910 -0.0661
vn 0.0355 0.9973 0.0643
vn 0.0984 0.9949 0.0235
vn 0.1246 0.9758 0.1799
vn 0.0208 0.9882 0.1519
vn 0.1076 0.9942 -0.0087
vn -0.3415 0.9237 -0.1736
vn -0.1363 0.9896 0.0472
vn -0.2761 0.9518 0.1337
vn -0.0098 0.9937 0.1114
vn -0.0573 0.9971 0.0501
vn -0.2208 0.9701 0.1007
vn 0.0715 0.9686 0.2382
vn 0.0673 0.9593 0.2741
vn 0.3002 0.9432 0.1425
vn 0.0521 0.9571 0.2851
vn -0.1062 0.9888 0.1047
vn -0.0200 0.9909 0.1328
vn 0.2555 0.9365 0.2402
vn -0.3197 0.9475 0.0081
vn 0.1384 0.9869 0.0834
vn 0.0394 0.9973 0.0627
vn 0.1757 0.9817 -0.0733
vn 0.0813 0.9936 0.0783
vn 0.0655 0.9978 -0.0125
vn 0.1295 0.9914 -0.0211
vn 0.0966 0.9919 0.0826
vn 0.0061 0.9816 0.1910
vn 0.1320 0.9889 -0.0675
vn 0.0411 0.9991 -0.0069
vn 0.0543 0.9958 0.0733
vn 0.1650 0.9850 -0.0498
vn 0.0780 0.9843 0.1583
vn 0.0028 0.9998 0.0193
vn -0.0408 0.9984 -0.0392
usemtl grass
s off
f 71/1/1 64/2/1 4/3/1 44/4/1
f 69/5/2 65/6/2 6/7/2 32/8/2
f 36/9/3 17/10/3 9/11/3 33/12/3
f 48/13/4 16/14/4 8/15/4 45/16/4
f 60/17/5 57/18/5 11/19/5 34/20/5
f 62/21/6 56/22/6 10/23/6 46/24/6
f 80/25/7 74/26/7 14/27/7 47/28/7
f 78/29/8 75/30/8 15/31/8 35/32/8
f 47/28/9 14/27/9 16/14/9 48/13/9
f 35/32/10 15/31/10 17/10/10 36/9/10
f 52/33/11 23/34/11 24/35/11 53/36/11
f 81/37/12 76/38/12 23/34/12 52/33/12
f 63/39/13 58/40/13 22/41/13 51/42/13
f 53/36/14 24/35/14 21/43/14 50/44/14
f 72/45/15 67/46/15 19/47/15 49/48/15
f 40/49/16 29/50/16 30/51/16 41/52/16
f 79/53/17 77/54/17 29/50/17 40/49/17
f 61/55/18 59/56/18 28/57/18 39/58/18
f 41/52/19 30/51/19 27/59/19 38/60/19
f 70/61/20 68/62/20 26/63/20 37/64/20
f 23/34/21 35/32/21 36/9/21 24/35/21
f 76/38/22 78/29/22 35/32/22 23/34/22
f 58/40/23 60/17/23 34/20/23 22/41/23
f 24/35/24 36/9/24 33/12/24 21/43/24
f 67/46/25 69/5/25 32/8/25 19/47/25
f 65/6/26 70/61/26 37/64/26 6/7/26
f 17/10/27 41/52/27 38/60/27 9/11/27
f 57/18/28 61/55/28 39/58/28 11/19/28
f 75/30/29 79/53/29 40/49/29 15/31/29
f 15/31/30 40/49/30 41/52/30 17/10/30
f 29/50/31 47/28/31 48/13/31 30/51/31
f 77/54/32 80/25/32 47/28/32 29/50/32
f 59/56/33 62/21/33 46/24/33 28/57/33
f 30/51/34 48/13/34 45/16/34 27/59/34
f 68/62/35 71/1/35 44/4/35 26/63/35
f 66/65/36 72/45/36 49/48/36 3/66/36
f 18/67/37 53/36/37 50/44/37 7/68/37
f 55/69/38 63/39/38 51/42/38 12/70/38
f 73/71/39 81/37/39 52/33/39 13/72/39
f 13/72/40 52/33/40 53/36/40 18/67/40
f 7/68/41 50/44/41 63/39/41 55/69/41
f 27/59/42 45/16/42 62/21/42 59/56/42
f 9/11/43 38/60/43 61/55/43 57/18/43
f 21/43/44 33/12/44 60/17/44 58/40/44
f 38/60/45 27/59/45 59/56/45 61/55/45
f 50/44/46 21/43/46 58/40/46 63/39/46
f 45/16/47 8/15/47 56/22/47 62/21/47
f 33/12/48 9/11/48 57/18/48 60/17/48
f 12/70/49 51/42/49 72/45/49 66/65/49
f 28/57/50 46/24/50 71/1/50 68/62/50
f 11/19/51 39/58/51 70/61/51 65/6/51
f 22/41/52 34/20/52 69/5/52 67/46/52
f 39/58/53 28/57/53 68/62/53 70/61/53
f 51/42/54 22/41/54 67/46/54 72/45/54
f 34/20/55 11/19/55 65/6/55 69/5/55
f 46/24/56 10/23/56 64/2/56 71/1/56
f 1/73/57 54/74/57 81/37/57 73/71/57
f 25/75/58 43/76/58 80/25/58 77/54/58
f 5/77/59 42/78/59 79/53/59 75/30/59
f 20/79/60 31/80/60 78/29/60 76/38/60
f 42/78/61 25/75/61 77/54/61 79/53/61
f 54/74/62 20/79/62 76/38/62 81/37/62
f 31/80/63 5/77/63 75/30/63 78/29/63
f 43/76/64 2/81/64 74/26/64 80/25/64
o flower_Plane.005
v 1.960054 2.133971 0.262445
v 2.310399 2.191635 -0.094643
v 1.952499 2.635464 0.336016
v 2.302844 2.693128 -0.021072
vt 0.000000 0.000000
vt 1.000000 0.000000
vt 1.000000 1.000000
vt 0.000000 1.000000
vn 0.7182 -0.0904 0.6900
usemtl flowers
s off
f 82/82/65 83/83/65 85/84/65 84/85/65
o flower_Plane.005
v -4.849825 3.383516 -4.971295
v -4.460078 3.538331 -5.250058
v -4.909880 3.854490 -4.793696
v -4.520133 4.009305 -5.072459
vt 0.000000 0.000000
vt 1.000000 0.000000
vt 1.000000 1.000000
vt 0.000000 1.000000
vn 0.6220 -0.2056 0.7555
usemtl flowers
s off
f 86/86/66 87/87/66 89/88/66 88/89/66
o flower_Plane.005
v -3.622868 2.429609 4.946339
v -3.237863 2.437764 4.621866
v -3.617278 2.936125 4.965703
v -3.232272 2.944280 4.641231
vt 0.000000 0.000000
vt 1.000000 0.000000
vt 1.000000 1.000000
vt 0.000000 1.000000
vn 0.6445 -0.0363 0.7638
usemtl flowers
s off
f 90/90/67 91/91/67 93/92/67 92/93/67
o flower_Plane.005
v 2.194526 1.937033 4.674065
v 2.601750 1.993835 4.383340
v 2.217637 2.426955 4.802156
v 2.624860 2.483756 4.511431
vt 0.000000 0.000000
vt 1.000000 0.000000
vt 1.000000 1.000000
vt 0.000000 1.000000
vn 0.5865 -0.2307 0.7764
usemtl flowers
s off
f 94/94/68 95/95/68 97/96/68 96/97/68
o flower_Plane.005
v -4.636827 3.353486 -0.315961
v -4.301536 3.433700 -0.683009
v -4.658611 3.852043 -0.226906
v -4.323320 3.932257 -0.593954
vt 0.000000 0.000000
vt 1.000000 0.000000
vt 1.000000 1.000000
vt 0.000000 1.000000
vn 0.7449 -0.0856 0.6617
usemtl flowers
s off
f 98/98/69 99/99/69 101/100/69 100/101/69
o flower_Plane.005
v -3.454408 2.853644 0.434756
v -3.176395 2.937372 0.023323
v -3.424903 3.345271 0.554742
v -3.146889 3.428999 0.143309
vt 0.000000 0.000000
vt 1.000000 0.000000
vt 1.000000 1.000000
vt 0.000000 1.000000
vn 0.8318 -0.1782 0.5258
usemtl flowers
s off
f 102/102/70 103/103/70 105/104/70 104/105/70
o flower_Plane.005
v -4.157121 3.121398 0.244777
v -3.749020 3.042889 -0.039597
v -4.013445 3.601937 0.318297
v -3.605345 3.523427 0.033922
vt 0.000000 0.000000
vt 1.000000 0.000000
vt 1.000000 1.000000
vt 0.000000 1.000000
vn 0.5127 -0.2776 0.8124
usemtl flowers
s off
f 106/106/71 107/107/71 109/108/71 108/109/71
o flower_Plane.005
v -9.199549 2.968529 4.137895
v -8.853571 2.897216 3.779018
v -9.122753 3.468951 4.112490
v -8.776775 3.397638 3.753614
vt 0.000000 0.000000
vt 1.000000 0.000000
vt 1.000000 1.000000
vt 0.000000 1.000000
vn 0.7106 -0.0735 0.6997
usemtl flowers
s off
f 110/110/72 111/111/72 113/112/72 112/113/72
o flower_Plane.005
v -3.620573 2.410128 4.911079
v -3.218799 2.461232 4.611839
v -3.636342 2.912657 4.975730
v -3.234567 2.963762 4.676490
vt 0.000000 0.000000
vt 1.000000 0.000000
vt 1.000000 1.000000
vt 0.000000 1.000000
vn 0.6020 -0.0833 0.7941
usemtl flowers
s off
f 114/114/73 115/115/73 117/116/73 116/117/73
o flower_Plane.005
v 1.928412 2.149379 0.249628
v 2.242285 2.197321 -0.141222
v 2.020613 2.629779 0.382595
v 2.334486 2.677720 -0.008255
vt 0.000000 0.000000
vt 1.000000 0.000000
vt 1.000000 1.000000
vt 0.000000 1.000000
vn 0.7605 -0.3047 0.5734
usemtl flowers
s off
f 118/118/74 119/119/74 121/120/74 120/121/74
o flower_Plane.005
v -9.232576 2.690733 5.617344
v -8.888787 2.680223 5.249545
v -9.097520 3.166163 5.729999
v -8.753731 3.155653 5.362199
vt 0.000000 0.000000
vt 1.000000 0.000000
vt 1.000000 1.000000
vt 0.000000 1.000000
vn 0.6804 -0.3463 0.6459
usemtl flowers
s off
f 122/122/75 123/123/75 125/124/75 124/125/75
o flower_Plane.005
v 2.522648 2.110721 0.331191
v 2.922823 2.150847 0.028160
v 2.623347 2.568275 0.524759
v 3.023522 2.608401 0.221728
vt 0.000000 0.000000
vt 1.000000 0.000000
vt 1.000000 1.000000
vt 0.000000 1.000000
vn 0.5736 -0.4230 0.7015
usemtl flowers
s off
f 126/126/76 127/127/76 129/128/76 128/129/76
o flower_Plane.005
v 4.359463 1.708746 3.144391
v 4.744567 1.789925 2.830252
v 4.383219 2.191186 3.298184
v 4.768323 2.272365 2.984045
vt 0.000000 0.000000
vt 1.000000 0.000000
vt 1.000000 1.000000
vt 0.000000 1.000000
vn 0.6426 -0.2613 0.7203
usemtl flowers
s off
f 130/130/77 131/131/77 133/132/77 132/133/77
o flower_Plane.005
v -6.719161 3.645776 -0.370293
v -6.283374 3.673009 -0.621145
v -6.699930 4.144701 -0.282720
v -6.264143 4.171933 -0.533572
vt 0.000000 0.000000
vt 1.000000 0.000000
vt 1.000000 1.000000
vt 0.000000 1.000000
vn 0.4996 -0.1684 0.8497
usemtl flowers
s off
f 134/134/78 135/135/78 137/136/78 136/137/78
o flower_Plane.005
v 2.778943 1.910140 4.818794
v 3.220540 1.858121 4.582438
v 2.892686 2.392550 4.925133
v 3.334283 2.340531 4.688777
vt 0.000000 0.000000
vt 1.000000 0.000000
vt 1.000000 1.000000
vt 0.000000 1.000000
vn 0.4250 -0.2893 0.8577
usemtl flowers
s off
f 138/138/79 139/139/79 141/140/79 140/141/79
o flower_Plane.005
v 3.975600 2.144606 0.279890
v 4.319792 2.038860 -0.072145
v 4.110054 2.633127 0.264604
v 4.454246 2.527382 -0.087431
vt 0.000000 0.000000
vt 1.000000 0.000000
vt 1.000000 1.000000
vt 0.000000 1.000000
vn 0.6800 -0.1648 0.7144
usemtl flowers
s off
f 142/142/80 143/143/80 145/144/80 144/145/80
o flower_Plane.005
v -6.882530 3.728926 -4.863459
v -6.476325 3.751311 -5.160233
v -6.891590 4.235106 -4.837681
v -6.485384 4.257491 -5.134455
vt 0.000000 0.000000
vt 1.000000 0.000000
vt 1.000000 1.000000
vt 0.000000 1.000000
vn 0.5907 -0.0305 0.8063
usemtl flowers
s off
f 146/146/81 147/147/81 149/148/81 148/149/81
o flower_Plane.005
v -9.720495 3.336762 -4.171321
v -9.302000 3.366220 -4.449841
v -9.661568 3.820472 -4.031617
v -9.243073 3.849930 -4.310136
vt 0.000000 0.000000
vt 1.000000 0.000000
vt 1.000000 1.000000
vt 0.000000 1.000000
vn 0.5439 -0.2933 0.7862
usemtl flowers
s off
f 150/150/82 151/151/82 153/152/82 152/153/82
o flower_Plane.005
v -2.110407 2.998369 -5.873903
v -1.750598 3.125265 -6.202557
v -2.142906 3.481226 -5.723048
v -1.783097 3.608123 -6.051702
vt 0.000000 0.000000
vt 1.000000 0.000000
vt 1.000000 1.000000
vt 0.000000 1.000000
vn 0.6967 -0.1708 0.6968
usemtl flowers
s off
f 154/154/83 155/155/83 157/156/83 156/157/83
o flower_Plane.005
v -0.705874 3.166667 -4.852823
v -0.360980 3.131985 -5.218095
v -0.641496 3.669309 -4.839760
v -0.296602 3.634628 -5.205033
vt 0.000000 0.000000
vt 1.000000 0.000000
vt 1.000000 1.000000
vt 0.000000 1.000000
vn 0.7175 -0.1098 0.6879
usemtl flowers
s off
f 158/158/84 159/159/84 161/160/84 160/161/84
o flower_Plane.005
v -3.444991 3.144761 -1.072909
v -3.041051 3.213861 -1.365546
v -3.481011 3.645725 -1.004338
v -3.077071 3.714825 -1.296975
vt 0.000000 0.000000
vt 1.000000 0.000000
vt 1.000000 1.000000
vt 0.000000 1.000000
vn 0.5929 -0.0672 0.8025
usemtl flowers
s off
f 162/162/85 163/163/85 165/164/85 164/165/85
o flower_Plane.005
v -8.118772 3.833757 -2.771101
v -7.751795 3.889224 -3.111439
v -8.018064 4.295316 -2.587289
v -7.651088 4.350782 -2.927628
vt 0.000000 0.000000
vt 1.000000 0.000000
vt 1.000000 1.000000
vt 0.000000 1.000000
vn 0.6553 -0.3985 0.6417
usemtl flowers
s off
f 166/166/86 167/167/86 169/168/86 168/169/86
o flower_Plane.005
v -6.776917 3.879373 -3.390919
v -6.347214 3.916519 -3.650832
v -6.733491 4.364315 -3.249818
v -6.303789 4.401462 -3.509731
vt 0.000000 0.000000
vt 1.000000 0.000000
vt 1.000000 1.000000
vt 0.000000 1.000000
vn 0.5143 -0.2817 0.8100
usemtl flowers
s off
f 170/170/87 171/171/87 173/172/87 172/173/87
o flower_Plane.005
v -9.869614 2.999835 1.789924
v -9.476931 3.129375 1.502525
v -9.935352 3.485600 1.919055
v -9.542669 3.615141 1.631656
vt 0.000000 0.000000
vt 1.000000 0.000000
vt 1.000000 1.000000
vt 0.000000 1.000000
vn 0.6124 -0.1246 0.7806
usemtl flowers
s off
f 174/174/88 175/175/88 177/176/88 176/177/88
o flower_Plane.005
v 6.358849 2.104417 1.752837
v 6.671016 2.104978 1.357705
v 6.374750 2.610910 1.766118
v 6.686917 2.611471 1.370986
vt 0.000000 0.000000
vt 1.000000 0.000000
vt 1.000000 1.000000
vt 0.000000 1.000000
vn 0.7840 -0.0409 0.6194
usemtl flowers
s off
f 178/178/89 179/179/89 181/180/89 180/181/89
o flower_Plane.005
v 5.471008 2.192671 -0.411444
v 5.799218 2.296464 -0.778981
v 5.442677 2.685799 -0.297484
v 5.770886 2.789592 -0.665021
vt 0.000000 0.000000
vt 1.000000 0.000000
vt 1.000000 1.000000
vt 0.000000 1.000000
vn 0.7564 -0.1057 0.6456
usemtl flowers
s off
f 182/182/90 183/183/90 185/184/90 184/185/90
o flower_Plane.005
v 0.648078 2.092499 1.934135
v 0.954195 2.041143 1.537608
v 0.751453 2.588520 1.949698
v 1.057570 2.537164 1.553171
vt 0.000000 0.000000
vt 1.000000 0.000000
vt 1.000000 1.000000
vt 0.000000 1.000000
vn 0.7674 -0.1792 0.6156
usemtl flowers
s off
f 186/186/91 187/187/91 189/188/91 188/189/91
o flower_Plane.005
v -4.151269 3.431891 -4.232995
v -3.792710 3.503889 -4.579160
v -4.207740 3.933562 -4.187147
v -3.849181 4.005560 -4.533312
vt 0.000000 0.000000
vt 1.000000 0.000000
vt 1.000000 1.000000
vt 0.000000 1.000000
vn 0.6932 0.0122 0.7206
usemtl flowers
s off
f 190/190/92 191/191/92 193/192/92 192/193/92
o flower_Plane.005
v -8.793617 3.600144 -3.403633
v -8.457313 3.714738 -3.760488
v -8.768399 4.074789 -3.227448
v -8.432095 4.189383 -3.584303
vt 0.000000 0.000000
vt 1.000000 0.000000
vt 1.000000 1.000000
vt 0.000000 1.000000
vn 0.7426 -0.2674 0.6140
usemtl flowers
s off
f 194/194/93 195/195/93 197/196/93 196/197/93
o flower_Plane.005
v -10.052070 3.015495 3.301622
v -9.627343 2.993191 3.032014
v -9.975514 3.510223 3.381297
v -9.550788 3.487919 3.111689
vt 0.000000 0.000000
vt 1.000000 0.000000
vt 1.000000 1.000000
vt 0.000000 1.000000
vn 0.5156 -0.2134 0.8298
usemtl flowers
s off
f 198/198/94 199/199/94 201/200/94 200/201/94
o flower_Plane.005
v -8.392680 3.235438 1.754517
v -8.059876 3.160879 1.384030
v -8.270970 3.727418 1.764839
v -7.938166 3.652859 1.394352
vt 0.000000 0.000000
vt 1.000000 0.000000
vt 1.000000 1.000000
vt 0.000000 1.000000
vn 0.7110 -0.1901 0.6770
usemtl flowers
s off
f 202/202/95 203/203/95 205/204/95 204/205/95
o flower_Plane.005
v -4.768193 3.202952 1.159214
v -4.380826 3.242417 0.839891
v -4.800987 3.708299 1.181888
v -4.413619 3.747764 0.862565
vt 0.000000 0.000000
vt 1.000000 0.000000
vt 1.000000 1.000000
vt 0.000000 1.000000
vn 0.6357 0.0066 0.7719
usemtl flowers
s off
f 206/206/96 207/207/96 209/208/96 208/209/96
o flower_Plane.005
v 4.996022 1.635686 4.806612
v 5.393772 1.708164 4.506411
v 5.032714 2.113910 4.970686
v 5.430464 2.186388 4.670485
vt 0.000000 0.000000
vt 1.000000 0.000000
vt 1.000000 1.000000
vt 0.000000 1.000000
vn 0.6090 -0.2988 0.7347
usemtl flowers
s off
f 210/210/97 211/211/97 213/212/97 212/213/97
o flower_Plane.005
v 6.500309 1.712699 4.712144
v 6.835911 1.766248 4.340550
v 6.530230 2.209043 4.810694
v 6.865833 2.262592 4.439100
vt 0.000000 0.000000
vt 1.000000 0.000000
vt 1.000000 1.000000
vt 0.000000 1.000000
vn 0.7432 -0.1731 0.6463
usemtl flowers
s off
f 214/214/98 215/215/98 217/216/98 216/217/98
o flower_Plane.005
v -6.771904 3.704168 -0.367094
v -6.341805 3.630541 -0.618435
v -6.641499 4.187169 -0.285430
v -6.211400 4.113542 -0.536771
vt 0.000000 0.000000
vt 1.000000 0.000000
vt 1.000000 1.000000
vt 0.000000 1.000000
vn 0.4520 -0.2660 0.8514
usemtl flowers
s off
f 218/218/99 219/219/99 221/220/99 220/221/99
o flower_Plane.005
v -3.521391 3.213219 -1.071171
v -3.086303 3.147032 -1.315907
v -3.435759 3.712554 -1.053977
v -3.000671 3.646368 -1.298713
vt 0.000000 0.000000
vt 1.000000 0.000000
vt 1.000000 1.000000
vt 0.000000 1.000000
vn 0.4743 -0.1114 0.8733
usemtl flowers
s off
f 222/222/100 223/223/100 225/224/100 224/225/100
o flower_Plane.005
v -2.199198 3.078727 -5.846621
v -1.786415 3.032033 -6.131240
v -2.107090 3.574458 -5.794364
v -1.694306 3.527765 -6.078984
vt 0.000000 0.000000
vt 1.000000 0.000000
vt 1.000000 1.000000
vt 0.000000 1.000000
vn 0.5432 -0.1872 0.8185
usemtl flowers
s off
f 226/226/101 227/227/101 229/228/101 228/229/101
o flower_Plane.005
v -0.667215 2.364820 4.172627
v -0.341293 2.324868 3.790845
v -0.582841 2.864275 4.192389
v -0.256920 2.824323 3.810607
vt 0.000000 0.000000
vt 1.000000 0.000000
vt 1.000000 1.000000
vt 0.000000 1.000000
vn 0.7439 -0.1514 0.6509
usemtl flowers
s off
f 230/230/102 231/231/102 233/232/102 232/233/102
o flower_Plane.005
v -5.702814 3.337357 -5.657601
v -5.290622 3.412523 -5.936934
v -5.756732 3.838361 -5.602350
v -5.344541 3.913526 -5.881684
vt 0.000000 0.000000
vt 1.000000 0.000000
vt 1.000000 1.000000
vt 0.000000 1.000000
vn 0.5645 -0.0302 0.8249
usemtl flowers
s off
f 234/234/103 235/235/103 237/236/103 236/237/103
o flower_Plane.005
v 3.890918 2.621902 -2.747761
v 4.251137 2.669069 -3.096467
v 3.997476 3.086354 -2.574861
v 4.357695 3.133521 -2.923567
vt 0.000000 0.000000
vt 1.000000 0.000000
vt 1.000000 1.000000
vt 0.000000 1.000000
vn 0.6664 -0.3896 0.6357
usemtl flowers
s off
f 238/238/104 239/239/104 241/240/104 240/241/104
o flower_Plane.005
v -1.900969 0.406257 0.069773
v -1.513635 0.411334 -0.251981
v -1.868419 0.909927 0.116905
v -1.481086 0.915004 -0.204850
vt 0.000000 0.000000
vt 1.000000 0.000000
vt 1.000000 1.000000
vt 0.000000 1.000000
vn 0.6358 -0.1125 0.7636
usemtl flowers
s off
f 242/242/105 243/243/105 245/244/105 244/245/105
